<?xml version="1.0" encoding="utf-8" ?>
<svg xmlns="http://www.w3.org/2000/svg" xmlns:xlink="http://www.w3.org/1999/xlink" width="842" height="467">
	<path fill="#0D2034" d="M279.69 49.6373C281.042 49.8921 288.057 46.4779 290.071 45.9077C294.526 44.6468 299.118 43.8436 303.61 42.7146C310.899 40.8825 318.104 38.6366 325.576 37.6397C350.08 34.3699 372.681 35.0042 397.184 36.9947C401.055 37.3092 423.666 40.8924 425.05 40.501C430.966 37.2858 435.334 36.0414 442.04 38.0505C448.641 40.0278 454.889 43.9698 460.488 47.9184C464.463 49.7183 468.164 50.771 472.5 51.2939C478.511 52.0189 484.603 52.0365 490.646 52.344C512.351 53.4483 534.165 53.156 555.905 53.1703L719.593 52.1106C733.052 52.0774 767.404 50.4778 778.577 54.1024C790.456 57.9557 801.694 69.5992 805.982 81.2203C810.364 93.0955 809.037 116.557 809.039 129.731L808.694 183.259C808.666 194.932 808.801 206.798 809.186 218.466C809.361 223.731 809.876 228.979 809.938 234.246C810.217 258.034 809.695 281.825 809.974 305.604C810.038 311.015 810.635 316.403 810.822 321.808C811.269 334.722 811.288 348.035 810.626 360.935C810.573 361.962 810.724 361.949 811.394 362.734L810.935 363.444L809.763 362.737C808.592 363.239 808.214 364.344 807.689 365.418C808.501 365.463 809.313 365.622 810.116 365.75C811.157 367.068 810.35 370.982 811.091 373.028C812.319 376.421 814.41 379.687 815.016 383.276C817.105 395.629 804.449 415.174 805.194 419.727L806.563 420.707L806.56 421.539C804.529 425.547 800.651 429.316 797.194 432.146C792.101 436.316 786.304 439.614 779.616 440.034C774.125 440.379 768.513 440.144 763.007 440.135L733.499 440.092L641.316 440.093L354.012 440.097L143.285 440.096L78.3543 440.11C68.7835 440.11 55.7584 440.872 46.4981 439.899C36.1314 438.81 27.2755 432.04 20.936 424.108C11.4495 412.239 7.80148 397.849 7.88638 382.86C7.90767 379.101 7.95049 375.025 8.89694 371.366C10.036 366.963 14.3316 360.275 14.659 356.638C14.6666 356.553 14.6685 356.468 14.6733 356.383C15.4828 354.369 16.2261 352.424 16.5375 350.261C17.3441 344.658 16.979 338.744 16.9715 333.092L16.9366 305.882Q16.2538 233.383 17.9124 160.901C18.3888 139.892 16.0908 112.989 22.1548 93.1282C26.4731 78.9845 35.3604 70.0857 48.331 63.2109C57.1359 58.544 66.4148 55.5584 76.3298 54.5107C81.7105 53.9422 87.1148 54.1262 92.5083 53.8518C96.6129 53.6429 100.684 52.7495 104.79 52.6319C109.964 52.4838 115.21 52.9831 120.398 53.0059L156.987 53.0185C185.649 53.3114 214.366 53.2173 243.027 52.9692C250.044 52.9085 257.649 52.7137 264.562 51.5798C268.407 50.9491 272.394 49.4674 276.243 49.1582C277.463 49.0602 278.53 49.2819 279.69 49.6373Z"/>
	<path fill="#D1EAEF" d="M303.383 156.379C306.288 154.722 309.155 153.534 312.411 152.781L312.509 153.339C311.886 153.764 311.384 153.99 310.653 154.191C309.879 154.404 309.507 154.641 308.981 155.235C308.729 156.362 308.932 156.581 309.395 157.663L310.094 157.866L310.762 157.392Q310.794 156.123 310.859 154.856L311.506 154.624C312.295 155.239 312.378 155.644 312.475 156.643C312.52 157.111 312.379 158.579 312.622 158.86C312.468 159.064 312.359 159.269 312.13 159.391C309.188 158.474 306.289 157.403 303.383 156.379Z"/>
	<path fill="#CDD6CE" d="M296.428 303.967C296.881 304.302 297.59 304.651 297.779 305.177C298.235 306.441 299.476 309.751 300.679 310.263C303.316 311.385 305.27 310.568 307.866 310.559C304.839 312.907 305.2 313.46 304.115 316.765C302.78 315.425 300.315 314.815 298.396 314.972C298.119 314.995 298.042 315.051 297.821 315.158C297.609 317.018 297.795 318.868 297.621 320.718C296.409 315.526 297.118 309.37 296.428 303.967Z"/>
	<path fill="#CDD6CE" d="M540.075 338.787C545.743 339.285 554.037 342.66 558.575 346.044L558.728 346.486C558.652 346.828 558.441 347.173 558.291 347.491C554.517 348.837 544.415 345.226 540.222 344.466C540.417 344.364 540.482 344.341 540.672 344.181C541.186 343.747 541.378 343.407 541.459 342.75C541.644 341.261 540.991 339.926 540.075 338.787Z"/>
	<defs>
		<linearGradient id="gradient_0" gradientUnits="userSpaceOnUse" x1="365.75311" y1="367.56836" x2="392.68417" y2="368.99347">
			<stop offset="0" stop-color="#CAD5D8"/>
			<stop offset="1" stop-color="#FDF8ED"/>
		</linearGradient>
	</defs>
	<path fill="url(#gradient_0)" d="M362.591 363.763C373.647 363.937 385.009 366.208 396.049 365.204C394.357 367.929 393.797 371.201 392.044 373.786C390.501 372.558 389.835 370.679 388.544 369.253C387.24 367.813 386.927 369.663 385.863 369.705C385.126 369.733 383.66 369.12 382.865 368.966C377.755 367.978 372.857 369.452 367.732 368.919C366.204 366.856 364.592 365.349 362.591 363.763Z"/>
	<path fill="#FCF5E4" d="M589.075 394.257C602.506 388.362 614.681 385.5 628.901 390.996C630.913 391.773 635.134 393.491 636.015 395.448C635.954 395.671 635.747 395.871 635.606 396.054C626.107 395.951 616.881 393.577 607.455 393.458C601.874 393.388 594.534 395.616 590.072 395.175C589.614 395.13 589.359 394.606 589.075 394.257Z"/>
	<path fill="#659EAD" d="M442.864 170.082Q442.117 176.709 441.622 183.36C441.513 185.035 441.672 186.829 441.48 188.477C441.448 192.086 441.961 197.135 440.982 200.544C440.569 200.006 440.011 199.759 439.434 199.42C437.713 200.076 435.73 200.013 433.905 200.097C434.143 198.257 433.975 196.251 434.477 194.463C434.613 193.982 434.66 193.668 434.597 193.157C433.709 193.245 433.215 193.099 432.626 193.861C432.203 194.409 431.982 195.161 431.746 195.806L432.073 192.213C431.899 188.837 433.149 176.71 431.358 174.447C435.116 172.825 438.886 171.092 442.864 170.082Z"/>
	<path fill="#567F8D" d="M432.073 192.213C432.454 190.482 432.669 188.84 432.765 187.07L433.359 186.698C433.667 186.87 434.023 186.937 434.12 187.292C434.664 189.269 433.647 191.278 434.597 193.157C433.709 193.245 433.215 193.099 432.626 193.861C432.203 194.409 431.982 195.161 431.746 195.806L432.073 192.213Z"/>
	<path fill="#A8BCC0" d="M367.732 368.919C372.857 369.452 377.755 367.978 382.865 368.966C383.66 369.12 385.126 369.733 385.863 369.705C386.927 369.663 387.24 367.813 388.544 369.253C389.835 370.679 390.501 372.558 392.044 373.786C390.636 376.168 389.179 378.561 388.104 381.116C386.1 385.876 385.234 391.147 381.843 395.177C379.721 390.714 378.273 385.936 376.098 381.496C373.898 377.005 370.679 372.942 367.732 368.919Z"/>
	<path fill="#6A909D" d="M436.219 273.961L436.714 274.202C436.189 281.295 435.307 304.772 430.416 309.187C429.809 309.735 428.968 310.049 428.204 310.308L426.246 311.025C425.545 311.145 424.831 311.299 424.124 311.37L420.105 312.259L417.988 312.625C414.759 313.323 411.447 314.238 408.181 314.688C409.465 313.223 411.501 312.268 413.165 311.277C416.298 304.591 416.478 300.169 418.38 293.445L418.465 293.15L418.528 292.843C418.464 287.558 420.345 280.702 421.239 275.41C421.743 276.988 422.068 279.091 423.417 280.062C425.255 279.978 426.954 278.744 428.649 278.085C427.394 278.107 424.866 278.486 423.903 277.801C424.66 276.61 425.681 276.684 426.681 275.895C427.375 275.889 428.036 275.687 428.735 275.747C430.213 275.874 431.815 276.045 433.279 275.752C434.855 275.436 435.298 275.287 436.219 273.961Z"/>
	<path fill="#659EAD" d="M426.246 311.025L425.702 310.358C425.655 309.162 425.589 308.216 426.118 307.098L426.692 307.081C427.499 308.041 427.812 309.142 428.204 310.308L426.246 311.025Z"/>
	<path fill="#659EAD" d="M418.709 308.675C419.692 308.796 420.483 308.975 421.391 309.374C421.345 309.294 421.284 309.221 421.254 309.134C421.106 308.699 421.092 308.101 421.026 307.639L421.245 307.408L422.082 308.389C422.692 307.977 423.209 307.516 423.748 307.015L424.47 307.158C424.665 307.653 424.824 307.732 424.637 308.25C424.236 309.362 424.083 310.175 424.124 311.37L420.105 312.259Q419.431 310.458 418.709 308.675Z"/>
	<path fill="#659EAD" d="M413.165 311.277C416.298 304.591 416.478 300.169 418.38 293.445L418.465 293.15C418.877 294.782 419.422 294.936 420.718 295.95L421.109 296.587L420.461 297.434C421.164 298.836 422.893 298.341 422.684 300.318C420.835 301.017 420.066 298.893 418.723 301.555C419.271 302.024 419.483 302.026 420.174 302.157C420.113 304.199 418.736 305.549 418.193 307.391C417.344 309.214 417.445 309.816 417.939 311.822C418.05 312.27 418.017 312.099 417.988 312.625C414.759 313.323 411.447 314.238 408.181 314.688C409.465 313.223 411.501 312.268 413.165 311.277Z"/>
	<path fill="#FCF5E4" d="M488.039 355.795C488.312 355.599 488.553 355.405 488.754 355.13C494.822 346.814 501.998 342.244 511.7 339.06C519.784 336.408 532.216 334.814 540.075 338.787C540.991 339.926 541.644 341.261 541.459 342.75C541.378 343.407 541.186 343.747 540.672 344.181C540.482 344.341 540.417 344.364 540.222 344.466C539.96 347.595 540.053 350.983 538.117 353.609C536.853 354.306 536.174 354.018 534.807 353.608C527.533 351.427 521.753 348.733 514.459 352.601C510.232 354.843 503.105 361.048 498.633 361.398C495.924 359.27 491.285 356.894 488.039 355.795Z"/>
	<path fill="#FCF5E4" d="M230.994 377.945C233.464 371.625 233.322 366.933 238.488 361.763C245.658 354.589 255.916 350.695 266.004 350.714C269.461 350.72 279.05 350.787 281.456 353.192C282.462 356.867 279.133 363.012 277.68 366.355C278.104 367.608 278.457 369.211 279.299 370.23L279.15 370.747C275.483 371.681 272.062 371.466 268.332 371.208L267.114 370.855C265.698 372.606 263.823 373.788 262.344 375.438C258.471 373.827 249.173 373.58 245.175 375.037C244.668 375.222 244.373 374.992 243.877 374.816C240.604 376.619 234.995 381.385 231.198 380.8L230.551 380.274C230.569 379.417 230.733 378.758 230.994 377.945Z"/>
	<path fill="#659EAD" d="M249.79 370.584C252.83 367.583 256.56 365.547 260.635 364.307C264.343 363.178 271.505 361.746 274.921 363.756C275.919 364.344 276.302 365.73 277.334 366.21C277.447 366.263 277.565 366.306 277.68 366.355C278.104 367.608 278.457 369.211 279.299 370.23L279.15 370.747C275.483 371.681 272.062 371.466 268.332 371.208L267.114 370.855C265.698 372.606 263.823 373.788 262.344 375.438C258.471 373.827 249.173 373.58 245.175 375.037C244.668 375.222 244.373 374.992 243.877 374.816C245.825 373.377 247.753 371.895 249.79 370.584Z"/>
	<path fill="#FCF5E4" d="M27.0327 403.706C24.1044 397.479 21.6947 391.393 22.3221 384.353C23.1677 374.863 28.8761 364.54 36.2192 358.52C42.9709 352.986 51.4791 351.024 60.0401 351.932C69.7968 352.967 79.6972 358.168 85.8499 365.753C85.2331 367.004 84.6929 368.045 83.246 368.479C82.1266 368.815 80.8803 368.941 79.7244 369.106C69.8623 364.403 61.8775 361.662 51.0618 365.531Q50.4182 365.758 49.7866 366.017Q49.155 366.277 48.5371 366.567Q47.9192 366.857 47.3165 367.177Q46.7138 367.498 46.1277 367.848Q45.5416 368.198 44.9736 368.576Q44.4057 368.955 43.8572 369.361Q43.3088 369.768 42.7812 370.201Q42.2536 370.634 41.7481 371.093Q41.2427 371.552 40.7607 372.035Q40.2787 372.518 39.8213 373.025Q39.3639 373.532 38.9322 374.06Q38.5005 374.589 38.0956 375.139Q37.6907 375.688 37.3136 376.257Q36.9366 376.826 36.5882 377.413Q36.2398 378 35.9211 378.604Q35.6023 379.207 35.3139 379.826C32.792 385.143 29.0863 401.129 27.0327 403.706Z"/>
	<defs>
		<linearGradient id="gradient_1" gradientUnits="userSpaceOnUse" x1="424.99875" y1="231.29031" x2="444.36722" y2="226.76074">
			<stop offset="0" stop-color="#608495"/>
			<stop offset="1" stop-color="#6FAAB2"/>
		</linearGradient>
	</defs>
	<path fill="url(#gradient_1)" d="M439.434 199.42C440.011 199.759 440.569 200.006 440.982 200.544C440.716 203.399 440.645 206.229 440.607 209.094C440.655 219.566 440.247 230.133 439.691 240.589C439.471 244.72 439.558 249.347 438.706 253.396L438.726 254.877L438.471 256.08L438.211 258.986C437.877 262.612 437.617 266.29 437.086 269.892L437.007 272.718L436.714 274.202L436.219 273.961C435.298 275.287 434.855 275.436 433.279 275.752C431.815 276.045 430.213 275.874 428.735 275.747C428.036 275.687 427.375 275.889 426.681 275.895C425.681 276.684 424.66 276.61 423.903 277.801C424.866 278.486 427.394 278.107 428.649 278.085C426.954 278.744 425.255 279.978 423.417 280.062C422.068 279.091 421.743 276.988 421.239 275.41C424.267 258.005 425.743 240.335 428.602 222.883L429.037 223.663C430.936 221.914 431.472 216.868 432.145 214.363C432.291 210.346 432.726 205.393 434.288 201.673L433.877 201.273L433.905 200.097C435.73 200.013 437.713 200.076 439.434 199.42Z"/>
	<path fill="#659EAD" d="M438.726 254.877C437.343 253.959 435.714 254.606 434.218 253.827L434.076 253.135L435.07 251.751Q434.792 251.057 434.555 250.349L435.212 249.869C436.22 250.073 436.881 250.198 437.851 249.783C437.922 249.752 437.991 249.718 438.061 249.685C438.731 250.492 438.619 252.317 438.706 253.396L438.726 254.877Z"/>
	<path fill="#659EAD" d="M439.434 199.42C440.011 199.759 440.569 200.006 440.982 200.544C440.716 203.399 440.645 206.229 440.607 209.094C440.173 207.752 440.418 206.41 439.434 205.261L439.12 205.218C436.361 204.82 435.904 203.808 434.288 201.673L433.877 201.273L433.905 200.097C435.73 200.013 437.713 200.076 439.434 199.42Z"/>
	<path fill="#567F8D" d="M428.602 222.883L429.037 223.663C430.936 221.914 431.472 216.868 432.145 214.363C432.014 219.745 432.275 225.411 430.684 230.594L430.836 230.775C431.238 231.263 431.501 231.616 431.682 232.236C430.532 233.246 429.391 234.149 428.703 235.552L429.028 235.049C429.788 237.534 429.986 238.988 429.224 241.57C429.635 242.417 430.258 242.66 431.067 243.083C431.331 243.966 431.305 244.112 431.054 245.004C430.151 245.254 429.496 244.877 428.659 244.54L428.14 244.797C427.968 245.722 427.824 245.93 428.246 246.799C428.954 246.813 429.655 246.827 430.362 246.787L430.658 247.193C430.023 247.889 429.431 248.331 429.243 249.28L429.974 250.538L427.833 249.434C430.419 251.697 429.839 253.499 431.364 256.126C431.887 256.814 432.262 257.609 433.11 257.837L433.54 257.144C433.157 256.169 432.688 255.332 432.146 254.441L432.515 253.852C433.607 254.291 433.914 255.278 434.791 255.792C435.412 256.157 437.62 255.894 438.471 256.08L438.211 258.986C437.877 262.612 437.617 266.29 437.086 269.892L437.007 272.718L436.714 274.202L436.219 273.961C435.298 275.287 434.855 275.436 433.279 275.752C431.815 276.045 430.213 275.874 428.735 275.747C428.036 275.687 427.375 275.889 426.681 275.895C425.681 276.684 424.66 276.61 423.903 277.801C424.866 278.486 427.394 278.107 428.649 278.085C426.954 278.744 425.255 279.978 423.417 280.062C422.068 279.091 421.743 276.988 421.239 275.41C424.267 258.005 425.743 240.335 428.602 222.883Z"/>
	<path fill="#659EAD" d="M425.95 262.249C427.023 262.669 427.549 263.349 428.258 264.206L428.966 264.367C429.254 263.839 429.388 263.44 429.487 262.846C430.468 262.599 431.107 262.539 432.08 263.024C432.833 263.399 433.183 263.846 433.413 264.611C432.683 265.272 430.762 264.988 430.648 265.627C432.496 266.709 435.369 265.596 436.416 267.829L435.996 268.787C436.345 269.227 436.611 269.578 437.086 269.892L437.007 272.718L436.714 274.202L436.219 273.961C435.298 275.287 434.855 275.436 433.279 275.752C431.815 276.045 430.213 275.874 428.735 275.747C428.036 275.687 427.375 275.889 426.681 275.895C426.22 275.68 425.92 275.564 425.408 275.556C424.809 275.546 424.237 275.476 423.644 275.395C423.62 274.033 425.189 274.245 425.503 273.358C425.686 272.84 425.206 272.505 425.595 271.723L427.523 271.579L427.662 271.169C426.572 270.688 425.66 270.507 424.989 269.495C425.318 268.984 425.708 268.45 425.896 267.869C426.176 267.005 425.641 266.345 425.27 265.57C425.581 265.123 425.908 264.717 426.26 264.303L425.987 263.682L424.554 263.23C424.852 262.569 425.302 262.538 425.95 262.249Z"/>
	<path fill="#6A909D" d="M427.833 249.434C430.419 251.697 429.839 253.499 431.364 256.126C431.887 256.814 432.262 257.609 433.11 257.837L433.54 257.144C433.157 256.169 432.688 255.332 432.146 254.441L432.515 253.852C433.607 254.291 433.914 255.278 434.791 255.792C435.412 256.157 437.62 255.894 438.471 256.08L438.211 258.986C437.877 262.612 437.617 266.29 437.086 269.892C436.611 269.578 436.345 269.227 435.996 268.787L436.416 267.829C435.369 265.596 432.496 266.709 430.648 265.627C430.762 264.988 432.683 265.272 433.413 264.611C433.183 263.846 432.833 263.399 432.08 263.024C431.107 262.539 430.468 262.599 429.487 262.846C429.388 263.44 429.254 263.839 428.966 264.367L428.258 264.206C427.549 263.349 427.023 262.669 425.95 262.249C426.336 261.745 426.503 261.547 426.521 260.884L425.409 260.417L425.2 259.632L426.05 258.743C425.591 256.053 427.032 252.162 426.751 250.731C426.738 250.661 426.719 250.593 426.702 250.523L427.833 249.434Z"/>
	<path fill="#659EAD" d="M431.364 256.126C431.887 256.814 432.262 257.609 433.11 257.837L433.54 257.144C433.157 256.169 432.688 255.332 432.146 254.441L432.515 253.852C433.607 254.291 433.914 255.278 434.791 255.792C435.412 256.157 437.62 255.894 438.471 256.08L438.211 258.986C437.458 258.463 436.812 258.08 435.935 257.806C436.031 258.607 436.343 258.874 436.822 259.509C436.211 259.949 435.71 259.936 434.973 259.972C433.356 260.051 429.72 259.582 428.592 258.542C429.453 257.409 430.337 257.655 431.364 256.126Z"/>
	<path fill="#FCF5E4" d="M279.299 370.23C282.467 365.062 287.636 362.622 293.377 361.259C307.131 357.993 320.47 359.769 333.623 364.434C337.812 365.92 341.982 367.495 345.766 369.861C354.128 375.09 361.065 384.617 364.539 393.758C364.19 393.896 363.897 394.025 363.512 393.988C361.753 393.821 355.881 388.104 354.265 386.772C347.892 381.525 340.067 377.146 332.246 374.474C322.295 371.074 305.685 369.462 295.961 373.703C291.515 375.642 286.252 379.304 281.346 379.415C280.459 379.017 280.085 378.912 279.554 378.054C278.301 376.024 278.602 372.938 279.15 370.747L279.299 370.23Z"/>
	<path fill="#FCF5E4" d="M397.222 404.919C398.447 401.107 398.914 396.983 399.956 393.096C401.849 386.031 407.542 378.375 412.717 373.305C421.548 364.655 438.991 358.181 451.303 358.305C455.851 358.351 467.11 358.299 470.408 361.673C472.437 362.105 477.054 364.038 478.398 365.568C481.242 366.279 484.14 368.006 486.495 369.71L486.824 370.382C486.201 370.606 485.913 370.549 485.287 370.425L483.919 371.138L484.01 371.59C484.753 371.923 485.43 372.26 486.112 372.708C484.006 373.221 481.923 371.168 479.788 371C475.607 370.67 471.005 373.216 467.047 372.5C463.996 371.283 458.571 371.869 455.215 371.856C442.518 372.585 431.264 377.941 422.804 387.394C418.117 392.632 415.408 397.966 412.304 404.17C411.901 403.447 411.83 403.004 411.045 402.691L410.666 402.827C406.875 404.16 401.244 405.429 397.222 404.919Z"/>
	<path fill="#CDD6CE" d="M478.398 365.568C481.242 366.279 484.14 368.006 486.495 369.71L486.824 370.382C486.201 370.606 485.913 370.549 485.287 370.425L483.919 371.138L484.01 371.59C484.753 371.923 485.43 372.26 486.112 372.708C484.006 373.221 481.923 371.168 479.788 371C475.607 370.67 471.005 373.216 467.047 372.5C463.996 371.283 458.571 371.869 455.215 371.856C457.313 370.728 464.617 371.838 467.745 371.347L469.526 371.379C472.139 369.114 475.915 368.746 478.502 366.596L478.398 365.568Z"/>
	<path fill="#FCF5E4" d="M109.43 373.842C107.515 367.05 102.953 364.376 99.2956 358.843C95.4918 353.09 97.7868 340.038 99.0308 333.593C101.905 318.7 112.195 302.475 124.833 293.959C139.466 284.099 159.823 279.233 177.238 282.627C182.007 283.556 186.6 285.241 191.103 287.032C204.264 292.266 215.043 299.235 223.121 311.17L222.57 311.966C218.761 311.991 209.364 304.621 205.4 302.503C203.645 301.565 182.679 292.455 182.585 292.479C182.313 292.546 182.139 292.819 181.915 292.989L181.242 294.509C175.675 295.6 169.252 294.457 163.505 294.883C146.603 296.135 128.24 305.348 118.676 319.581C111.706 329.953 106.185 351.238 108.636 363.624C109.385 367.41 111.75 372.125 111.116 375.942L110.701 376.378C109.747 375.604 109.743 374.995 109.43 373.842Z"/>
	<path fill="#FCF5E4" d="M297.621 320.718C297.795 318.868 297.609 317.018 297.821 315.158C298.042 315.051 298.119 314.995 298.396 314.972C300.315 314.815 302.78 315.425 304.115 316.765L304.243 317.149C305.785 321.662 310.873 324.546 314.98 326.505C335.871 336.468 395.465 335.841 417.212 328.021C422.391 326.158 426.944 322.169 432.095 320.701L432.672 321.234L432.588 320.761C433.826 322.675 432.583 333.411 432.063 336.043C431.644 338.168 430.168 339.722 428.381 340.823C425.376 342.675 421.4 343.438 418.001 344.261C399.197 348.816 382.818 348.286 363.772 348.567C358.255 348.648 352.432 349.393 346.948 348.912C341.028 348.392 335.255 346.639 329.477 345.335C325.321 344.397 321.074 343.809 316.852 343.249C312.156 342.627 305.51 343.412 301.459 342.388C300.825 342.227 300.63 342.182 300.273 341.581C298.684 338.905 297.588 324.174 297.621 320.718Z"/>
	<path fill="#90C7D0" d="M312.411 152.781C342.803 142.474 379.9 142.046 411.265 147.975C420.361 149.694 429.525 151.815 438.015 155.585C429.932 160.046 420.691 161.997 411.856 164.463C405.03 166.368 398.324 168.879 391.322 170.065C365.667 174.409 338.311 167.015 313.797 159.96C313.223 159.795 312.675 159.643 312.13 159.391C312.359 159.269 312.468 159.064 312.622 158.86C312.379 158.579 312.52 157.111 312.475 156.643C312.378 155.644 312.295 155.239 311.506 154.624L310.859 154.856Q310.794 156.123 310.762 157.392L310.094 157.866L309.395 157.663C308.932 156.581 308.729 156.362 308.981 155.235C309.507 154.641 309.879 154.404 310.653 154.191C311.384 153.99 311.886 153.764 312.509 153.339L312.411 152.781Z"/>
	<path fill="#FCF5E4" d="M293.091 148.104C295.1 147.146 297.678 144.974 299.053 143.218C299.092 143.168 299.13 143.116 299.168 143.065L299.802 143.064C299.706 147.419 300.341 151.302 301.715 155.434C303.592 161.079 299.945 168.11 304.876 174.334C305.906 185.406 305.005 196.712 305.396 207.84C305.766 218.375 306.96 228.885 307.482 239.421C308.208 254.064 308.3 268.77 309.1 283.391C309.43 289.41 308.972 298.14 311.684 303.491C312.984 306.057 316.769 308.081 315.424 311.435C312.84 310.597 310.577 310.423 307.866 310.559C305.27 310.568 303.316 311.385 300.679 310.263C299.476 309.751 298.235 306.441 297.779 305.177C297.59 304.651 296.881 304.302 296.428 303.967C296.294 296.998 294.998 288.137 294.483 280.844L290.331 226.116C289.489 215.689 288.41 205.438 287.849 194.975C287.433 187.226 285.711 178.825 286.332 171.113C286.415 170.075 286.497 169.468 287.305 168.777L288.998 169.336C289.914 168.68 289.507 165.942 289.521 164.769C289.588 159.288 290.251 152.877 293.091 148.104Z"/>
	<path fill="#FCF5E4" d="M355.067 51.98C364.782 51.5838 374.461 52.1374 384.158 52.7027C400.536 53.6576 416.699 54.8437 432.627 59.0726C435.895 59.9402 443.708 61.9877 445.32 65.109C445.756 65.9541 445.556 66.2452 445.309 67.1107C436.233 76.8212 388.871 79.3654 374.389 80.4731C356.75 80.9608 339.462 79.9885 321.918 78.1432C315.302 77.4473 308.486 76.908 302.017 75.3024C296.615 73.9616 291.384 71.7755 286.429 69.2584C285.234 68.6512 284.152 68.0276 283.707 66.6812C283.817 66.2791 283.859 65.8162 284.152 65.5131C286.218 63.3769 290.108 62.5332 292.896 61.6113C313.009 54.9617 334.031 52.9237 355.067 51.98Z"/>
	<path fill="#FCF5E4" d="M278.939 83.7904C283.287 84.795 287.528 86.5422 291.772 87.9265Q299.51 90.4187 307.498 91.9303C316.217 93.6339 325.1 94.4484 333.945 95.1918Q341.136 95.8571 348.351 96.1665Q355.566 96.4758 362.788 96.4284Q370.009 96.381 377.22 95.977Q384.43 95.5729 391.612 94.8132Q398.793 94.0535 405.929 92.94Q413.064 91.8265 420.136 90.362Q427.207 88.8974 434.198 87.0853Q441.188 85.2733 448.081 83.1181C448.012 93.5716 447.192 104.127 446.507 114.557C445.903 123.738 445.547 133.11 443.928 142.173C428.546 135.002 411.681 131.951 394.908 130.357C369.548 127.947 346.902 130.551 322.012 135.064C316.636 136.039 309.477 136.728 304.574 139.024C302.817 139.847 301.645 141.568 300.166 142.772L299.802 143.064L299.168 143.065C299.13 143.116 299.092 143.168 299.053 143.218C297.678 144.974 295.1 147.146 293.091 148.104C290.328 149.357 287.915 151.592 285.58 153.513C282.496 145.234 278.59 94.2142 278.939 83.7904Z"/>
	<path fill="#90C7D0" d="M304.876 174.334C320.622 178.366 340.367 183.616 356.321 185.275C362.473 185.914 368.557 185.626 374.719 185.342C381.461 185.032 388.36 184.883 395.042 183.891C402.706 182.754 410.216 180.559 417.682 178.527C422.23 177.29 426.953 176.135 431.358 174.447C433.149 176.71 431.899 188.837 432.073 192.213L431.746 195.806C431.982 195.161 432.203 194.409 432.626 193.861C433.215 193.099 433.709 193.245 434.597 193.157C434.66 193.668 434.613 193.982 434.477 194.463C433.975 196.251 434.143 198.257 433.905 200.097L433.877 201.273L434.288 201.673C432.726 205.393 432.291 210.346 432.145 214.363C431.472 216.868 430.936 221.914 429.037 223.663L428.602 222.883C425.743 240.335 424.267 258.005 421.239 275.41C420.345 280.702 418.464 287.558 418.528 292.843L418.465 293.15L418.38 293.445C416.478 300.169 416.298 304.591 413.165 311.277C411.501 312.268 409.465 313.223 408.181 314.688C389.314 320.542 367.276 319.979 347.704 318.836C342.148 318.511 336.399 318.338 330.944 317.18C325.52 316.029 320.465 313.673 315.424 311.435C316.769 308.081 312.984 306.057 311.684 303.491C308.972 298.14 309.43 289.41 309.1 283.391C308.3 268.77 308.208 254.064 307.482 239.421C306.96 228.885 305.766 218.375 305.396 207.84C305.005 196.712 305.906 185.406 304.876 174.334Z"/>
	<path fill="#68C3D0" d="M401.619 214.229C401.722 212.37 400.867 210.729 400.7 208.867C401.028 207.527 401.843 206.987 402.869 206.182C404.24 210.504 406.657 214.32 410.814 216.406C411.469 216.736 412.09 216.883 412.823 216.939L412.854 217.49C410.941 218.42 407.79 216.968 405.512 217.168L401.619 214.229Z"/>
	<path fill="#4B6471" d="M431.746 195.806C431.982 195.161 432.203 194.409 432.626 193.861C433.215 193.099 433.709 193.245 434.597 193.157C434.66 193.668 434.613 193.982 434.477 194.463C433.975 196.251 434.143 198.257 433.905 200.097L433.877 201.273L434.288 201.673C432.726 205.393 432.291 210.346 432.145 214.363C431.472 216.868 430.936 221.914 429.037 223.663L428.602 222.883C429.56 213.823 431.011 204.917 431.746 195.806Z"/>
	<path fill="#FCF5E4" d="M322.73 198.898C323.24 198.903 323.726 198.937 324.232 199.003C325.565 199.175 326.797 199.621 327.601 200.774C328.375 201.884 328.556 203.323 328.324 204.632C327.856 207.261 326.479 208.836 324.37 210.339C323.555 210.533 322.715 210.645 321.889 210.781C321.383 210.642 320.91 210.48 320.526 210.104C319.494 209.095 319.224 207.594 319.3 206.208C319.467 203.11 320.492 200.969 322.73 198.898Z"/>
	<path fill="#FCF5E4" d="M402.869 206.182C402.916 202.827 403.241 199.511 405.832 197.072C407.302 195.688 409.267 195.05 411.271 195.166C414.577 195.356 417.804 197.441 419.903 199.91C421.407 201.679 422.488 203.891 422.274 206.266C422.028 208.996 420.103 211.454 418.03 213.104C416.506 214.319 413.959 215.487 412.823 216.939C412.09 216.883 411.469 216.736 410.814 216.406C406.657 214.32 404.24 210.504 402.869 206.182Z"/>
	<path fill="#FCF5E4" d="M401.255 233.846C397.234 231.972 393.726 230.256 391.956 225.855C390.74 222.83 391.042 219.132 392.354 216.184C393.073 214.567 394.243 213.052 395.982 212.471C397.935 211.819 399.96 213.312 401.619 214.229L405.512 217.168C408.108 219.002 410.51 220.522 411.465 223.75C411.94 225.355 411.8 226.995 410.963 228.464C409.022 231.875 404.737 232.862 401.255 233.846Z"/>
	<defs>
		<linearGradient id="gradient_2" gradientUnits="userSpaceOnUse" x1="343.42099" y1="223.91132" x2="307.40616" y2="291.48868">
			<stop offset="0" stop-color="#C7E1E2"/>
			<stop offset="1" stop-color="white"/>
		</linearGradient>
	</defs>
	<path fill="url(#gradient_2)" d="M321.779 212.741C323.134 212.882 324.534 212.532 325.871 212.311C326.154 215.741 327.134 219.18 327.643 222.592C328.599 228.995 329.279 235.532 329.915 241.979C330.881 251.756 330.242 261.683 330.59 271.495C330.81 277.682 332.03 283.8 332.254 289.989C332.417 294.498 332.579 297.936 329.349 301.407Q329.03 301.488 328.708 301.559C326.743 301.994 324.668 301.931 322.966 300.718C321.623 299.759 321.034 298.259 320.793 296.689C319.67 289.374 321.313 277.142 321.345 269.084C321.373 262.265 321.034 255.448 320.946 248.63C320.885 243.872 321.11 239.113 321.033 234.355C320.951 229.258 320.605 224.142 320.725 219.045C320.768 217.205 320.69 214.216 321.779 212.741Z"/>
	<path fill="#90C7D0" d="M109.43 373.842C109.743 374.995 109.747 375.604 110.701 376.378L111.116 375.942C111.75 372.125 109.385 367.41 108.636 363.624C106.185 351.238 111.706 329.953 118.676 319.581C128.24 305.348 146.603 296.135 163.505 294.883C169.252 294.457 175.675 295.6 181.242 294.509L181.915 292.989C182.139 292.819 182.313 292.546 182.585 292.479C182.679 292.455 203.645 301.565 205.4 302.503C209.364 304.621 218.761 311.991 222.57 311.966L223.121 311.17C227.695 316.888 235.748 338.609 234.906 345.541C233.633 356.012 225.294 358.848 226.116 372.257C227.214 374.213 228.437 377.258 230.773 377.893C230.846 377.912 230.921 377.927 230.994 377.945C230.733 378.758 230.569 379.417 230.551 380.274L231.198 380.8C234.995 381.385 240.604 376.619 243.877 374.816C244.373 374.992 244.668 375.222 245.175 375.037C249.173 373.58 258.471 373.827 262.344 375.438C263.823 373.788 265.698 372.606 267.114 370.855L268.332 371.208C272.062 371.466 275.483 371.681 279.15 370.747C278.602 372.938 278.301 376.024 279.554 378.054C280.085 378.912 280.459 379.017 281.346 379.415C286.252 379.304 291.515 375.642 295.961 373.703C305.685 369.462 322.295 371.074 332.246 374.474C340.067 377.146 347.892 381.525 354.265 386.772C355.881 388.104 361.753 393.821 363.512 393.988C363.897 394.025 364.19 393.896 364.539 393.758L364.695 394.051C367.856 400.125 367.049 414.688 368.425 416.289C373.817 417.085 380.341 413.43 385.482 411.907C388.608 410.98 391.954 410.454 394.994 409.294C395.899 407.863 396.6 406.493 397.222 404.919C401.244 405.429 406.875 404.16 410.666 402.827L411.045 402.691C411.83 403.004 411.901 403.447 412.304 404.17C415.408 397.966 418.117 392.632 422.804 387.394C431.264 377.941 442.518 372.585 455.215 371.856C458.571 371.869 463.996 371.283 467.047 372.5C471.005 373.216 475.607 370.67 479.788 371C481.923 371.168 484.006 373.221 486.112 372.708C485.43 372.26 484.753 371.923 484.01 371.59L483.919 371.138L485.287 370.425C485.913 370.549 486.201 370.606 486.824 370.382C492.883 371.929 505.549 386.445 510.069 391.46C512.518 390.684 515.51 389.184 516.721 386.785C517.399 385.443 517.654 383.595 517.22 382.159C517.493 381.161 517.343 380.43 517.003 379.487C514.927 373.745 504.13 363.964 498.633 361.398C503.105 361.048 510.232 354.843 514.459 352.601C521.753 348.733 527.533 351.427 534.807 353.608C536.174 354.018 536.853 354.306 538.117 353.609C540.053 350.983 539.96 347.595 540.222 344.466C544.415 345.226 554.517 348.837 558.291 347.491C558.441 347.173 558.652 346.828 558.728 346.486C563.797 347.725 569.306 355.998 571.901 360.283C574.674 364.863 581.178 380.334 579.955 385.165C579.925 385.283 579.887 385.4 579.854 385.517C579.794 385.645 579.738 385.775 579.675 385.901C579.095 387.062 577.467 388.025 576.56 389.015C574.535 391.224 570.253 397.353 571.272 400.419C571.544 401.239 572.142 401.95 572.938 402.296C574.044 402.778 575.317 402.711 576.408 403.146C580.821 401.474 584.839 396.755 589.075 394.257C589.359 394.606 589.614 395.13 590.072 395.175C594.534 395.616 601.874 393.388 607.455 393.458C616.881 393.577 626.107 395.951 635.606 396.054C635.747 395.871 635.954 395.671 636.015 395.448C636.103 395.478 636.192 395.506 636.279 395.539C641.268 397.433 645.765 403.691 647.781 408.423C648.822 410.865 650.67 417.28 653.261 418.147C658.85 420.018 670.028 414.699 676.033 413.748C678.54 413.351 681.055 413.163 683.592 413.32C686.024 413.471 691.975 415.488 693.97 414.276C694.544 413.927 694.851 413.462 695.035 412.809C695.264 411.994 695.251 410.656 695.014 409.844C695.966 407.95 696.632 405.866 697.55 403.933C700.954 396.762 705.572 391.222 712.119 386.707C721.12 380.5 734.664 376.245 745.617 378.247C753.786 378.425 763.542 382.85 769.173 388.736C771.711 391.389 776.653 397.133 776.332 400.943C776.31 401.206 776.219 401.417 776.136 401.669C777.208 402.553 777.341 404 777.478 405.306C777.66 407.045 777.193 409.05 777.875 410.662C778.653 411.196 779.409 411.743 780.15 412.327C783.41 412.839 789.89 413.259 792.285 415.572C792.274 415.863 792.246 416.144 792.16 416.425C791.074 419.947 784.518 423.439 781.32 425.05C776.225 427.616 771.527 427.979 765.912 428.069C749.473 428.334 732.988 427.901 716.542 427.911Q659.571 428.504 602.599 427.962L252.989 427.5L143.618 428.157C136.78 428.224 129.953 428.699 123.118 428.77Q103.038 428.806 82.9604 428.496C73.4915 428.394 62.4863 429.683 53.4499 426.686C41.601 422.756 32.6174 414.912 27.0327 403.706C29.0863 401.129 32.792 385.143 35.3139 379.826Q35.6023 379.207 35.9211 378.604Q36.2398 378 36.5882 377.413Q36.9366 376.826 37.3136 376.257Q37.6907 375.688 38.0956 375.139Q38.5005 374.589 38.9322 374.06Q39.3639 373.532 39.8213 373.025Q40.2787 372.518 40.7607 372.035Q41.2427 371.552 41.7481 371.093Q42.2536 370.634 42.7812 370.201Q43.3088 369.768 43.8572 369.361Q44.4057 368.955 44.9736 368.576Q45.5416 368.198 46.1277 367.848Q46.7138 367.498 47.3165 367.177Q47.9192 366.857 48.5371 366.567Q49.155 366.277 49.7866 366.017Q50.4182 365.758 51.0618 365.531C61.8775 361.662 69.8623 364.403 79.7244 369.106C80.8803 368.941 82.1266 368.815 83.246 368.479C84.6929 368.045 85.2331 367.004 85.8499 365.753C89.9622 370.667 95.1526 374.935 99.8574 379.285Q103.335 381.712 106.745 384.232C108.861 380.635 109.604 378.015 109.43 373.842Z"/>
	<path fill="#0D2034" d="M536.049 376.492C537.456 376.445 538.9 376.436 540.295 376.236C541.874 376.009 545.221 375.263 546.134 374.029C546.665 375.261 546.454 376.476 545.998 377.702C545.641 378.664 544.82 379.342 543.864 379.693C542.626 380.147 540.529 379.932 539.364 379.299C538.141 378.636 537.053 377.446 536.049 376.492Z"/>
	<path fill="#567F8D" d="M776.136 401.669C777.208 402.553 777.341 404 777.478 405.306C777.66 407.045 777.193 409.05 777.875 410.662C778.653 411.196 779.409 411.743 780.15 412.327C777.415 412.546 772.792 413.552 770.557 411.888C769.504 409.317 771.194 407.069 771.915 404.669L772.004 404.365C772.762 404.286 773.523 404.209 774.277 404.097C775.358 403.935 775.911 403.793 776.578 402.912L776.136 401.669Z"/>
	<path fill="#0D2034" d="M536.049 376.492C535.884 375.258 535.595 373.836 536.028 372.633Q536.13 372.347 536.26 372.073Q536.389 371.799 536.546 371.54Q536.702 371.28 536.884 371.037Q537.066 370.795 537.271 370.571Q537.476 370.348 537.702 370.146Q537.928 369.944 538.173 369.766Q538.419 369.588 538.68 369.435Q538.942 369.282 539.218 369.156C540.787 368.436 542.786 368.351 544.386 369.039C545.37 369.463 546.137 370.128 546.481 371.167C546.839 372.25 546.598 373.035 546.134 374.029C545.221 375.263 541.874 376.009 540.295 376.236C538.9 376.436 537.456 376.445 536.049 376.492Z"/>
	<path fill="#CDD6CE" d="M85.8499 365.753C89.9622 370.667 95.1526 374.935 99.8574 379.285L98.8488 380.076C93.0187 380.784 84.2759 372.307 79.7244 369.106C80.8803 368.941 82.1266 368.815 83.246 368.479C84.6929 368.045 85.2331 367.004 85.8499 365.753Z"/>
	<path fill="#FCF5E4" d="M602.432 404.308C602.975 404.246 603.463 404.257 603.991 404.42C605.946 405.022 607.762 406.544 608.653 408.389C609.447 410.034 609.579 412.225 608.923 413.939C608.146 415.97 606.44 417.115 604.521 417.932C604.413 418.023 604.314 418.126 604.198 418.206C603.626 418.596 602.673 418.72 602.018 418.528C600.838 418.183 599.926 417.069 599.345 416.031C598.208 413.999 597.858 411.137 598.509 408.897C599.132 406.756 600.538 405.373 602.432 404.308Z"/>
	<path fill="#FCF5E4" d="M60.5167 393.755C60.8548 393.72 61.1676 393.699 61.507 393.702C63.202 393.713 64.9989 394.657 66.1661 395.876C67.5194 397.289 67.9915 399.221 67.8964 401.133C67.7413 404.252 66.1928 406.404 63.9733 408.464C63.3339 408.58 62.693 408.674 62.0412 408.67C60.4997 408.66 59.1806 408.122 58.1257 406.999C56.8318 405.62 56.429 403.68 56.4978 401.839C56.6292 398.32 57.9646 396.068 60.5167 393.755Z"/>
	<path fill="#659EAD" d="M455.215 371.856C458.571 371.869 463.996 371.283 467.047 372.5C465.922 373.829 463.651 373.682 461.934 373.825C456.738 374.257 450.625 374.373 445.643 375.891C442.471 376.857 439.281 379.122 436.054 379.66L440.523 376.173C434.025 377.937 428.735 381.485 425.334 387.396C421.778 393.579 419.884 401.078 412.887 404.356L412.304 404.17C415.408 397.966 418.117 392.632 422.804 387.394C431.264 377.941 442.518 372.585 455.215 371.856Z"/>
	<path fill="#FCF5E4" d="M139.088 316.646C140.449 316.547 141.838 316.504 143.199 316.606C145.216 316.757 147.191 317.729 148.502 319.28C149.637 320.623 150.156 322.501 149.963 324.243C149.651 327.069 147.901 329.57 145.722 331.276C143.968 331.696 141.757 332.247 139.989 331.631C138.479 331.105 137.233 329.69 136.564 328.266C135.298 325.571 135.452 322.465 136.445 319.719C137.026 318.109 137.528 317.364 139.088 316.646Z"/>
	<path fill="#FCF5E4" d="M267.114 370.855L268.332 371.208C271.235 373.079 273.875 374.996 274.663 378.582C275.24 381.21 274.49 384.184 273.016 386.399C271.899 388.079 270.177 389.428 268.152 389.761C266.663 390.006 265.229 389.651 264.023 388.742C261.815 387.081 260.665 384.062 260.34 381.405C260.048 379.016 260.952 377.293 262.344 375.438C263.823 373.788 265.698 372.606 267.114 370.855Z"/>
	<path fill="#FCF5E4" d="M336.694 384.04C338.489 384.356 339.742 384.811 341.174 385.962C343.138 387.54 344.433 389.7 344.654 392.236C344.852 394.514 344.219 396.798 342.691 398.523C341.527 399.836 339.907 401.061 338.108 401.151C336.378 400.578 334.504 400.041 332.914 399.145C330.979 398.053 329.301 396.059 328.74 393.895C328.267 392.073 328.486 390.126 329.502 388.523C331.227 385.8 333.694 384.731 336.694 384.04Z"/>
	<path fill="#FCF5E4" d="M695.014 409.844C695.966 407.95 696.632 405.866 697.55 403.933C700.954 396.762 705.572 391.222 712.119 386.707C721.12 380.5 734.664 376.245 745.617 378.247C747.051 380.468 746.547 386.067 745.873 388.668C745.745 389.158 745.462 389.594 745.151 389.986C745.062 390.019 744.975 390.055 744.885 390.087C738.725 392.262 731.773 390.494 724.025 394.028C717.812 396.862 701.259 410.754 697.262 411.636C696.588 411.785 696.266 411.641 695.62 411.46L695.014 409.844Z"/>
	<path fill="#0D2034" d="M162.561 412.862C162.255 413.58 161.898 414.511 161.412 415.129C160.584 416.18 159.318 416.577 158.033 416.661C155.468 416.826 151.952 416.464 150.009 414.585C148.869 413.483 148.451 412.005 148.46 410.466C148.513 400.866 156.006 391.606 162.472 385.291C172.56 375.439 183.501 372.555 197.377 372.725C212.117 372.906 224.648 378.235 234.913 388.799C240.345 394.389 245.22 400.797 245.024 408.852C244.968 411.149 244.552 413.867 242.72 415.466C241.129 416.855 238.82 416.899 236.822 416.793C232.742 416.577 229.558 408.535 227.545 405.342C226.383 403.499 225.033 401.861 223.603 400.225C222.561 400.833 222.055 401.203 220.807 400.908C217.648 400.16 214.577 398.893 211.426 398.07C203.206 395.921 190.465 393.772 182.732 398.101C178.881 400.257 174.897 402.723 171.851 405.955C170.068 407.846 168.37 410.335 166.317 411.9C165.345 412.641 164.047 413.443 162.813 412.989C162.725 412.956 162.645 412.905 162.561 412.862Z"/>
	<path fill="#FCF5E4" d="M162.561 412.862C164.081 406.951 166.254 401.697 170.65 397.283C176.732 391.177 185.477 387.205 194.13 387.181C205.944 387.147 215.355 392.037 223.603 400.225C222.561 400.833 222.055 401.203 220.807 400.908C217.648 400.16 214.577 398.893 211.426 398.07C203.206 395.921 190.465 393.772 182.732 398.101C178.881 400.257 174.897 402.723 171.851 405.955C170.068 407.846 168.37 410.335 166.317 411.9C165.345 412.641 164.047 413.443 162.813 412.989C162.725 412.956 162.645 412.905 162.561 412.862Z"/>
	<path fill="#FCF5E4" d="M14.6733 356.383C15.4828 354.369 16.2261 352.424 16.5375 350.261C17.3441 344.658 16.979 338.744 16.9715 333.092L16.9366 305.882Q16.2538 233.383 17.9124 160.901C18.3888 139.892 16.0908 112.989 22.1548 93.1282C26.4731 78.9845 35.3604 70.0857 48.331 63.2109C57.1359 58.544 66.4148 55.5584 76.3298 54.5107C81.7105 53.9422 87.1148 54.1262 92.5083 53.8518C96.6129 53.6429 100.684 52.7495 104.79 52.6319C109.964 52.4838 115.21 52.9831 120.398 53.0059L156.987 53.0185C185.649 53.3114 214.366 53.2173 243.027 52.9692C250.044 52.9085 257.649 52.7137 264.562 51.5798C268.407 50.9491 272.394 49.4674 276.243 49.1582C277.463 49.0602 278.53 49.2819 279.69 49.6373C271.159 55.6332 265.063 58.3571 263.043 69.9239C261.693 77.6464 262.863 85.7532 263.33 93.5205C264.637 115.247 267.39 136.822 268.957 158.511L274.3 244.269C275.083 255.662 276.335 267.06 277.248 278.451C278.393 292.739 279.513 306.981 281.274 321.212C281.921 326.435 282.314 331.784 283.47 336.923C272.855 333.942 258.894 330.158 248.241 334.171C247.041 328.786 246.091 323.168 244.251 317.964C238.518 301.754 225.512 287.359 211.146 278.216Q209.46 277.147 207.723 276.161Q205.987 275.175 204.205 274.275Q202.423 273.375 200.599 272.562Q198.775 271.749 196.914 271.026Q195.053 270.303 193.159 269.671Q191.265 269.039 189.343 268.5Q187.42 267.96 185.474 267.515Q183.527 267.07 181.562 266.72Q179.596 266.369 177.616 266.115Q175.635 265.861 173.645 265.703Q171.654 265.545 169.659 265.484Q167.663 265.423 165.666 265.459Q163.67 265.495 161.678 265.628Q159.686 265.761 157.702 265.991Q155.719 266.22 153.749 266.546Q151.779 266.871 149.827 267.292C127.909 272.161 108.067 283.846 95.919 303.001C88.1533 315.246 85.0326 328.599 83.7374 342.917C78.3041 341.887 73.2993 339.442 67.9109 338.302C55.358 335.646 37.1923 338.121 26.4562 345.471C23.8395 347.263 16.2507 356.185 14.9503 356.489L14.6733 356.383Z"/>
	<path fill="#4B6471" d="M121.664 224.923C123.037 226.961 124.168 229.241 123.671 231.778C123.352 233.409 122.86 234.217 121.457 235.151C121.247 231.829 121.581 228.266 121.664 224.923Z"/>
	<path fill="#A8BCC0" d="M97.634 192.067C99.116 193.194 100.291 194.477 100.472 196.434C100.58 197.614 100.111 198.468 99.3431 199.313C98.5546 200.182 96.9401 200.161 95.8468 200.219C97.4875 197.393 97.5702 195.244 97.634 192.067Z"/>
	<path fill="#CDD6CE" d="M90.6302 199.809C88.4773 199.463 85.5503 199.061 83.878 197.56C82.9616 196.737 82.6332 196.058 82.5378 194.843C82.8019 193.663 83.2955 192.822 84.2638 192.093C86.1111 190.703 87.9286 190.17 90.1908 190.542C89.1597 192.444 88.7347 194.767 89.349 196.884C89.6389 197.883 90.1148 198.906 90.6302 199.809Z"/>
	<path fill="#6A909D" d="M90.1908 190.542C92.7602 190.856 95.1888 191.158 97.634 192.067C97.5702 195.244 97.4875 197.393 95.8468 200.219C94.1562 200.294 92.3207 199.967 90.6302 199.809C90.1148 198.906 89.6389 197.883 89.349 196.884C88.7347 194.767 89.1597 192.444 90.1908 190.542Z"/>
	<path fill="#4B6471" d="M92.5337 223.074L93.1793 225.123C94.8437 224.504 95.5004 221.859 98.7563 220.656C99.3411 224.839 100.021 230.338 98.338 234.306C98.1399 234.773 98.1568 234.988 98.2493 235.472C100.66 237.33 107.215 236.167 110.405 236.715C104.077 237.041 97.6018 236.762 91.258 236.759C93.2314 234.513 92.4859 226.143 92.5337 223.074Z"/>
	<path fill="#1E3F56" d="M68.2028 111.912C70.2688 111.819 72.2982 111.959 73.9876 113.276C75.2168 114.234 76.1627 115.662 76.2979 117.241C76.4167 118.63 75.9252 119.974 74.9811 120.994C73.3589 122.746 70.9221 122.615 68.7293 122.702C66.7925 122.513 64.5843 122.352 62.8376 121.424C61.6976 120.818 60.5586 119.636 60.2674 118.346C60.0384 117.331 60.3275 116.269 60.8966 115.418C62.5443 112.955 65.4935 112.383 68.2028 111.912Z"/>
	<defs>
		<linearGradient id="gradient_3" gradientUnits="userSpaceOnUse" x1="69.266068" y1="251.36937" x2="74.653549" y2="260.5972">
			<stop offset="0" stop-color="#263844"/>
			<stop offset="1" stop-color="#3F5D6D"/>
		</linearGradient>
	</defs>
	<path fill="url(#gradient_3)" d="M72.21 251.748C76.1707 251.156 79.5293 251.714 83.196 253.227C83.0713 255.049 83.2556 257.458 81.8057 258.789C80.1459 260.312 76.4553 259.806 74.3299 259.759C70.9569 259.646 66.7792 260.321 63.5841 259.349C63.1353 258.866 62.9799 258.779 62.8849 258.13C62.7032 256.888 62.8856 255.359 63.6898 254.353C65.4863 252.106 69.5692 252.064 72.21 251.748Z"/>
	<path fill="#1E3F56" d="M69.8939 236.022C64.2814 235.291 59.066 236.854 52.4393 235.322C50.643 234.906 49.2251 234.392 48.2138 232.745C48.0263 231.983 47.952 231.344 48.1961 230.58C49.0963 227.764 52.2389 225.523 54.7608 224.268C57.5681 222.871 62.0299 221.457 65.1242 222.753C66.4742 223.319 66.6445 224.123 67.217 225.346C66.8629 225.738 66.514 226.129 66.1796 226.538C66.5953 228.49 67.371 234.397 68.8702 235.651L69.9597 235.702L69.8939 236.022Z"/>
	<path fill="#0D2034" d="M230.312 109.809C233.283 109.639 236.148 109.824 238.689 111.524C240.664 112.845 242.127 114.748 242.586 117.109C242.92 118.827 242.657 120.634 241.637 122.082C239.942 124.49 237.433 124.954 234.702 125.407C232.023 125.814 229.044 126.079 226.478 125.026C224.667 124.283 223.116 122.977 222.377 121.133C221.661 119.348 221.811 117.378 222.614 115.65C224.044 112.572 227.265 110.879 230.312 109.809Z"/>
	<path fill="#0D2034" d="M227.634 234.041C231.132 234.174 234.921 234.973 237.888 236.902C239.789 238.138 241.526 240.042 241.931 242.345C242.203 243.886 241.89 245.268 240.972 246.536C238.908 249.39 235.018 249.791 231.827 250.336C227.913 250.438 224.382 250.277 220.943 248.119C219.074 246.945 217.397 245.181 216.954 242.952C216.64 241.37 217.026 239.796 217.948 238.484C220.032 235.516 224.291 234.566 227.634 234.041Z"/>
	<path fill="#1E3F56" d="M98.7563 220.656C105.202 219.368 112.965 218.487 118.769 222.312C119.846 223.021 120.765 224.004 121.664 224.923C121.581 228.266 121.247 231.829 121.457 235.151C117.916 236.475 114.17 236.882 110.405 236.715C107.215 236.167 100.66 237.33 98.2493 235.472C98.1568 234.988 98.1399 234.773 98.338 234.306C100.021 230.338 99.3411 224.839 98.7563 220.656Z"/>
	<defs>
		<linearGradient id="gradient_4" gradientUnits="userSpaceOnUse" x1="225.7542" y1="205.09222" x2="230.66606" y2="221.67804">
			<stop offset="0" stop-color="#00142A"/>
			<stop offset="1" stop-color="#002D44"/>
		</linearGradient>
	</defs>
	<path fill="url(#gradient_4)" d="M227.574 204.431Q228.173 204.385 228.773 204.392Q229.374 204.4 229.972 204.46Q230.569 204.521 231.159 204.634Q231.749 204.748 232.326 204.913Q232.904 205.078 233.464 205.294Q234.025 205.51 234.564 205.774Q235.103 206.039 235.617 206.351Q236.13 206.662 236.614 207.018C238.771 208.588 240.573 210.888 240.933 213.592C241.166 215.346 240.73 217.068 239.633 218.465C237.208 221.552 233.56 221.938 229.938 222.35C226.356 221.912 222.666 221.594 219.565 219.564C217.636 218.301 216.14 216.372 215.689 214.081Q215.625 213.767 215.594 213.449Q215.563 213.13 215.565 212.81Q215.568 212.49 215.604 212.171Q215.639 211.853 215.708 211.541Q215.777 211.228 215.878 210.924Q215.979 210.62 216.112 210.329Q216.244 210.037 216.406 209.761Q216.568 209.485 216.758 209.227C219.174 205.883 223.751 204.989 227.574 204.431Z"/>
	<path fill="#0D2034" d="M68.3203 223.076C69.7434 220.026 71.6678 217.949 74.9029 216.819C78.7276 215.482 83.7736 216.283 87.3365 218.066C89.2373 219.016 91.8412 220.711 92.4877 222.856C92.5091 222.927 92.5184 223.001 92.5337 223.074C92.4859 226.143 93.2314 234.513 91.258 236.759C84.3004 237.302 76.7457 237.509 69.8939 236.022L69.9597 235.702L68.8702 235.651C67.371 234.397 66.5953 228.49 66.1796 226.538C66.514 226.129 66.8629 225.738 67.217 225.346C67.929 224.686 68.0653 223.991 68.3203 223.076Z"/>
	<path fill="#D1EAEF" d="M67.217 225.346C67.929 224.686 68.0653 223.991 68.3203 223.076C69.034 226.996 70.1989 231.212 70.5435 235.146L69.9597 235.702L68.8702 235.651C67.371 234.397 66.5953 228.49 66.1796 226.538C66.514 226.129 66.8629 225.738 67.217 225.346Z"/>
	<path fill="#0D2034" d="M153.35 99.6274C164.209 98.7203 175.673 100.244 184.811 106.586C194.823 113.534 204.839 127.335 207.013 139.464C209.236 151.868 204.547 164.213 197.523 174.291C189.938 185.175 179.319 192.105 166.262 194.405C155.399 195.238 143.508 193.908 134.511 187.22C123.43 178.982 114.643 163.906 112.675 150.273C112.132 146.506 111.984 142.461 112.785 138.728C114.282 131.756 120.454 121.051 124.758 115.36C131.805 106.044 142.013 101.228 153.35 99.6274Z"/>
	<path fill="#CDD6CE" d="M150.416 176.651C153.568 174.269 156.928 172.968 160.442 171.259C162.868 170.079 165.171 168.648 167.569 167.41C174.275 163.947 181.116 161.009 185.84 154.846C187.612 152.534 188.138 149.898 189.657 147.523L190.269 147.398C191.367 148.439 191.302 149.185 191.598 150.645C191.912 156.725 187.906 163.624 183.894 168.041C178.289 174.211 167.751 178.295 159.428 178.662C156.618 178.786 153.091 177.463 150.416 176.651Z"/>
	<path fill="#FCF5E4" d="M150.416 176.651C145.243 174.771 140.846 172.149 137.178 167.981C131.522 161.553 128.223 153.045 128.784 144.448C129.334 136.043 132.877 129.143 139.229 123.632C145.112 118.527 152.531 115.385 160.435 116.024C169.228 116.735 180.083 123.139 185.659 129.881C190.494 135.728 192.297 143.216 191.598 150.645C191.302 149.185 191.367 148.439 190.269 147.398L189.657 147.523C188.138 149.898 187.612 152.534 185.84 154.846C181.116 161.009 174.275 163.947 167.569 167.41C165.171 168.648 162.868 170.079 160.442 171.259C156.928 172.968 153.568 174.269 150.416 176.651Z"/>
	<path fill="#FCF5E4" d="M425.05 40.501C430.966 37.2858 435.334 36.0414 442.04 38.0505C448.641 40.0278 454.889 43.9698 460.488 47.9184C464.463 49.7183 468.164 50.771 472.5 51.2939C478.511 52.0189 484.603 52.0365 490.646 52.344C512.351 53.4483 534.165 53.156 555.905 53.1703L719.593 52.1106C733.052 52.0774 767.404 50.4778 778.577 54.1024C790.456 57.9557 801.694 69.5992 805.982 81.2203C810.364 93.0955 809.037 116.557 809.039 129.731L808.694 183.259C808.666 194.932 808.801 206.798 809.186 218.466C809.361 223.731 809.876 228.979 809.938 234.246C810.217 258.034 809.695 281.825 809.974 305.604C810.038 311.015 810.635 316.403 810.822 321.808C811.269 334.722 811.288 348.035 810.626 360.935C810.573 361.962 810.724 361.949 811.394 362.734L810.935 363.444L809.763 362.737C808.592 363.239 808.214 364.344 807.689 365.418C808.509 367.405 806.953 384.749 806.572 388.224C806.035 393.13 804.883 399.354 800.869 402.583C799.209 400.807 792.921 399.344 790.451 398.478C790.456 398.376 790.464 398.273 790.465 398.171C790.486 397.029 789.581 395.199 789.187 394.099C786.735 387.255 784.115 381.833 778.836 376.685C768.73 366.828 754.092 362.459 740.171 362.649C722.745 362.887 704.071 368.595 693.197 382.957C690.058 387.103 687.989 392.8 684.367 396.422C684.304 396.485 684.238 396.545 684.174 396.607C674.837 396.902 671.026 398.099 662.316 400.58C662.295 400.349 662.303 400.352 662.238 400.086C661.868 398.568 660.862 397.031 660.098 395.679C655.832 388.125 649.596 382.143 642.082 377.807C627.726 369.522 608.949 370.491 593.488 374.608C593.6 374.317 593.611 374.327 593.661 373.963C594.503 367.805 584.92 351.012 581.332 345.994C571.867 332.757 554.092 323.899 538.275 321.354C519.545 318.339 499.889 324.321 484.777 335.463C481.535 337.852 479.52 341.73 476.276 343.99C476.197 344.045 476.116 344.096 476.036 344.148C469.491 340.981 454.517 340.164 447.236 340.85C447.413 335.101 448.418 329.338 448.775 323.583C450.536 295.203 453.309 266.916 455.122 238.548Q456.596 212.71 457.106 186.835C457.336 178.728 457.181 170.589 457.82 162.497C458.664 151.788 460.244 141.123 461.181 130.413C462.274 117.912 462.7 105.408 463.456 92.8893C463.917 85.2651 465.336 77.0607 464.666 69.4765C463.803 59.7186 457.632 54.9626 450.678 49.0995C445.508 46.1437 439.863 44.3142 434.09 42.9283C431.265 42.2502 427.597 41.8455 425.05 40.501Z"/>
	<path fill="#CDD6CE" d="M425.05 40.501C430.966 37.2858 435.334 36.0414 442.04 38.0505C448.641 40.0278 454.889 43.9698 460.488 47.9184C460.383 47.9157 460.277 47.9153 460.171 47.9103C455.586 47.6905 438.842 33.5676 432.519 38.6796C431.896 39.1836 431.213 40.1135 431.195 40.9458C431.192 41.0827 431.204 41.2195 431.208 41.3563C435.397 42.6322 448.145 44.6643 450.447 48.6467C450.532 48.7934 450.605 48.9467 450.678 49.0995C445.508 46.1437 439.863 44.3142 434.09 42.9283C431.265 42.2502 427.597 41.8455 425.05 40.501Z"/>
	<path fill="#0D2034" d="M766.665 319.623C769.588 318.934 772.204 319.434 774.787 320.958C777.506 322.562 779.859 325.256 780.643 328.36C781.158 330.399 780.985 332.602 779.849 334.409C778.555 336.467 776.181 337.963 773.841 338.47C772.692 339.028 770.828 338.766 769.607 338.631C766.878 338.329 764.524 336.851 762.856 334.691C761.165 332.502 760.374 329.763 760.794 327.017C761.341 323.44 763.933 321.636 766.665 319.623Z"/>
	<path fill="#0D2034" d="M544.206 70.0898C545.67 69.8954 547.104 69.6929 548.545 70.1307C549.958 70.5603 551.346 71.7582 551.968 73.1161C552.81 74.957 553.033 77.4253 553.182 79.4291C553.42 82.637 553.882 106.923 553.256 108.545C559.157 108.565 565.39 106.882 571.186 108.616C572.743 109.081 574.765 109.912 575.499 111.47C576 112.534 575.816 113.682 575.39 114.731C574.257 117.524 572.373 119.893 569.582 121.116C568.465 121.984 550.051 122.551 547.265 122.502C547.005 122.099 547.132 122.21 546.792 121.958C545.153 120.748 543.403 119.356 542.08 117.796C541.095 116.635 540.378 115.281 540.09 113.777C538.955 107.845 539.814 100.605 539.777 94.5489C539.742 88.9266 539.151 83.005 539.723 77.4226C540.085 73.8918 541.538 72.2624 544.206 70.0898Z"/>
	<path fill="#0D2034" d="M693.351 69.2683C693.81 69.1979 694.268 69.1316 694.732 69.095C696.303 68.9712 697.673 69.7746 698.824 70.7787C701.08 72.7472 709.729 85.2292 709.942 87.9849C717.818 84.0634 716.462 74.6608 722.041 70.1049C722.859 69.4368 723.672 69.3168 724.717 69.423C726.948 69.6496 729.426 70.2991 730.863 72.159C732.124 73.7912 732.392 75.867 732.064 77.8589C731.442 81.628 723.542 94.4428 720.258 96.8123C720.332 99.0015 717.588 101.645 717.372 104.142C717.059 107.764 718.569 112.968 717.312 116.269C717.212 117.448 716.289 118.474 715.429 119.237C714.111 120.404 711.923 121.768 710.098 121.604C709.026 121.507 708.18 120.931 707.522 120.101C703.281 114.755 705.825 108.448 704.263 102.589C703.752 100.673 701.981 98.6565 700.861 97.0355C697.273 91.838 688.739 80.9691 689.5 74.8236C689.812 72.3001 691.463 70.7786 693.351 69.2683Z"/>
	<path fill="#0D2034" d="M643.609 320.857C647.937 321.136 650.92 321.019 654.78 323.524C659.21 326.398 662.267 331.244 663.278 336.393C664.321 341.703 663.093 346.793 660.073 351.24C656.911 355.895 652.767 359.079 647.197 360.112C646.829 360.253 646.499 360.378 646.105 360.429C643.115 360.817 639.261 359.59 636.819 357.881C632.298 354.715 629.003 349.05 628.072 343.65C627.143 338.257 628.697 332.08 631.906 327.666C634.823 323.652 638.798 321.664 643.609 320.857Z"/>
	<path fill="#CDD6CE" d="M644.19 333.599C644.493 333.56 644.585 333.542 644.926 333.535C646.406 333.501 647.225 333.986 648.228 335.046C649.253 336.128 649.983 337.278 649.908 338.833C649.867 339.692 649.504 339.796 648.894 340.347C648.29 340.834 647.469 341.052 646.703 341.031C646.066 341.014 645.674 340.787 645.262 340.274C643.918 338.603 644.078 335.581 644.19 333.599Z"/>
	<path fill="#0D2034" d="M627.761 141.209C628.912 141.026 630.25 140.885 631.387 141.214C634.321 142.064 636.256 144.465 637.683 147.013C637.976 147.536 638.245 148.007 638.403 148.594C639.591 153.017 637.852 165.182 637.59 170.331Q637.072 180.404 637.279 190.488C637.387 195.748 637.78 201.036 637.441 206.29C637.325 208.091 636.972 209.295 636.034 210.837C634.786 212.891 633.004 214.607 630.639 215.207C629.839 215.494 629.115 215.611 628.267 215.452C625.99 215.025 623.962 213.142 622.664 211.318C621.585 209.802 620.763 208.124 620.609 206.257C619.897 197.665 621.458 188.377 621.736 179.723C622.016 171.039 621.108 155.342 622.598 147.806C623.224 144.643 625.193 142.927 627.761 141.209Z"/>
	<path fill="#0D2034" d="M758.644 69.2688C760.887 69.1894 763.112 69.2941 765.316 69.7415C769.329 70.5556 773.833 72.4578 776.158 76.0162C777.216 77.6349 777.674 79.5553 777.213 81.4565C776.77 83.2835 775.604 85.042 773.983 86.0211C768.921 89.077 766.713 83.2136 762.476 82.4241C760.68 82.0894 758.938 82.4603 757.455 83.5349C756.169 84.4674 755.255 85.4874 755.022 87.0638C756.782 89.3219 769.57 91.1117 775.189 96.6025C777.91 99.2622 779.658 102.92 779.645 106.759C779.632 110.559 777.865 113.992 775.195 116.627C770.55 121.21 764.68 122.195 758.437 122.158C752.9 121.842 747.105 120.57 742.806 116.832C741.116 115.363 739.791 113.405 739.682 111.109C739.606 109.533 740.177 107.933 741.32 106.827C745.905 102.388 753.525 109.314 758.791 109.262C760.752 109.243 762.528 108.48 763.907 107.101C764.026 106.717 764.318 106.132 764.22 105.748C763.221 101.844 756.833 101.718 753.699 100.77Q752.062 100.283 750.51 99.5703Q748.957 98.8575 747.521 97.9333C743.883 95.5631 741.12 92.1672 740.27 87.8392C739.633 84.593 740.263 81.6101 742.156 78.898C745.963 73.4449 752.266 70.4128 758.644 69.2688Z"/>
	<path fill="#0D2034" d="M506.72 70.0905C508.474 70.0234 510.127 70.4679 511.595 71.4273C512.893 72.2757 513.923 73.4116 514.739 74.7222C517.528 79.1995 531.581 109.133 532.341 113.529C532.561 114.797 531.887 116.151 531.135 117.138C529.813 118.871 526.788 121.304 524.554 121.459C519.853 121.786 517.839 112.855 515.071 110.247C515.014 110.194 514.954 110.144 514.896 110.093L507.439 110.332Q502.706 110.546 497.997 111.067C498.015 111.136 498.036 111.203 498.051 111.273C498.452 113.093 497.285 116.905 496.318 118.483C495.438 119.918 493.784 121.209 492.107 121.543C490.08 121.946 487.935 121.288 486.265 120.133C484.603 118.984 483.455 117.291 483.121 115.287C482.874 113.803 483.102 112.407 483.516 110.976C484.575 107.307 486.557 103.806 488.054 100.291C491.513 92.1655 495.506 80.2821 500.699 73.2613C502.312 71.0799 504.123 70.5069 506.72 70.0905Z"/>
	<path fill="#FCF5E4" d="M505.977 88.5842C506.048 88.5984 506.12 88.6065 506.189 88.6269C506.73 88.7872 507.075 89.0281 507.373 89.5016C508.927 91.9755 511.607 95.4531 510.913 98.5095C509.824 99.3044 509.029 99.0202 507.706 98.9668L502.241 98.53C503.53 96.3913 506.055 91.0354 505.977 88.5842Z"/>
	<path fill="#0D2034" d="M664.814 69.6796C666.882 69.4692 668.804 69.6945 670.579 70.844C671.645 71.5339 672.443 72.4131 673.087 73.501C675.724 77.9537 689.657 109.983 690.39 114.012Q690.437 114.284 690.457 114.56Q690.477 114.836 690.469 115.112Q690.462 115.389 690.427 115.663Q690.391 115.937 690.329 116.207Q690.267 116.476 690.178 116.738Q690.089 117 689.974 117.251Q689.859 117.503 689.72 117.742Q689.581 117.981 689.419 118.205C688.045 120.103 685.586 121.457 683.277 121.728C678.627 122.274 676.503 115.435 673.41 113.143C673.338 113.09 673.264 113.042 673.191 112.991L665.932 113.141L655.873 113.089C655.935 113.379 655.968 113.446 655.929 113.784C655.65 116.181 653.18 119.924 651.217 121.284C650.253 121.952 649.03 122.309 647.868 122.027C645.879 121.544 643.364 120.103 642.324 118.277C641.137 116.194 641.892 113.398 642.533 111.24C644.762 103.745 657.001 78.2497 661.74 72.0882C662.595 70.9765 663.591 70.3342 664.814 69.6796Z"/>
	<path fill="#FCF5E4" d="M665.677 90.2339C666.683 90.5058 667.096 90.9266 667.617 91.7983C668.866 93.8884 670.651 97.9866 670.064 100.382C669.008 100.966 666.782 100.662 665.521 100.659L663.275 100.622C662.724 100.249 662.519 100.222 662.34 99.5792C661.592 96.8869 664.377 92.6214 665.677 90.2339Z"/>
	<defs>
		<linearGradient id="gradient_5" gradientUnits="userSpaceOnUse" x1="646.82623" y1="219.70779" x2="668.35272" y2="289.30194">
			<stop offset="0" stop-color="#06182A"/>
			<stop offset="1" stop-color="#122D3B"/>
		</linearGradient>
	</defs>
	<path fill="url(#gradient_5)" d="M625.6 225.483C632.699 224.276 643.373 225.677 650.963 225.686C658.44 225.694 666.255 224.71 673.679 225.483C676.335 225.76 678.57 226.981 680.219 229.107C680.965 230.068 681.715 231.131 681.538 232.4C681.585 232.54 681.637 232.678 681.678 232.82C681.994 233.905 681.391 236.466 680.749 237.448C677.381 242.599 667.674 239.208 662.785 240.731C657.535 242.365 661.844 274.133 659.097 279.437Q659.392 279.97 659.553 280.558C660.404 283.6 659.791 287.48 658.218 290.194C656.404 293.322 654.038 294.914 650.611 295.866C650.31 295.588 650.462 295.689 650.084 295.506C648.616 294.794 647.114 293.954 645.898 292.856C644.495 291.59 643.35 289.825 642.966 287.962C641.798 282.3 642.929 275.445 643.257 269.666C643.751 260.977 644.352 251.901 643.686 243.221C643.201 236.903 625.977 241.743 620.812 236.709C620.036 235.953 619.794 234.988 619.893 233.931C620.223 230.413 622.97 227.513 625.6 225.483Z"/>
	<path fill="#0D2034" d="M618.709 96.2364C622.624 93.4998 625.469 77.055 629.118 72.0283C630.093 70.6864 631.424 69.4739 633.15 69.3004C634.654 69.1492 636.063 69.9883 637.143 70.9563C638.916 72.5463 640.364 74.5949 640.455 77.0394C640.576 80.2685 637.247 91.9031 635.238 94.0872C635.282 94.2515 635.364 94.5067 635.372 94.6909C635.53 98.1623 627.793 115.72 624.82 118.761C623.441 120.171 621.382 121.663 619.316 121.56C611.737 121.178 610.384 105.895 606.349 101.814C606.274 101.737 606.195 101.664 606.117 101.588C606.199 102.111 606.188 102.423 606.044 102.941C605.001 106.701 598.857 118.731 595.433 120.416C594.364 120.942 593.285 120.964 592.162 120.607C589.231 119.675 586.951 116.224 585.62 113.651C583.181 108.935 573.045 78.5613 574.5 74.9071C575.551 72.2669 578.879 70.7035 581.301 69.6792C582.111 69.6321 582.897 69.613 583.683 69.8499C590.652 71.9491 589.211 89.6643 592.744 95.412C593.121 96.0252 593.211 95.9452 593.912 96.0932C596.66 94.1461 598.677 85.4284 600.299 81.9945C601.5 79.4534 603.601 75.5216 606.503 74.6465C607.559 74.3282 608.611 74.4778 609.581 74.9827C613.346 76.9421 617.383 91.7947 618.709 96.2364Z"/>
	<path fill="#0D2034" d="M694.982 225.483C701.864 224.987 718.936 224.331 725.268 225.33C727.22 225.638 729.122 226.311 730.757 227.432C732.296 228.486 733.578 230.06 733.854 231.953C734.045 233.266 733.626 234.447 732.781 235.446C727.458 241.731 709.717 239.827 701.783 240.393C702.216 242.064 701.109 249.689 700.234 251.193C706.559 251.622 718.58 249.139 723.593 252.798C725.434 254.141 726.717 256.464 727.016 258.714C727.179 259.944 726.909 261.146 726.111 262.114C722.558 266.423 706.492 265.647 700.74 266.366C702.216 269.869 699.468 275.611 701.346 279.048C701.766 279.817 702.144 279.788 702.934 280.001Q708.261 280.216 713.591 280.131C718.341 280.013 724.133 278.618 728.651 280.27C730.421 280.916 732.832 282.405 733.564 284.219C734.294 286.027 733.856 288.077 733.144 289.81C732.069 292.424 730.031 294.804 727.346 295.838C726.091 296.322 724.575 296.334 723.247 296.349C719.027 296.397 714.798 295.724 710.571 295.654C705.447 295.569 700.251 296.115 695.143 295.71C693.955 295.615 693.003 295.427 691.906 294.935C688.812 293.546 686.439 290.833 685.268 287.672C684.518 285.649 684.217 283.548 684.136 281.4C683.835 273.453 684.919 265.284 685.109 257.321C685.258 251.108 684.57 244.673 685.121 238.5C685.293 236.575 685.71 234.626 686.529 232.867C688.284 229.095 691.161 226.905 694.982 225.483Z"/>
	<path fill="#0D2034" d="M731.001 140.799C732.512 140.615 734.129 140.536 735.584 141.044C737.642 141.761 739.151 143.15 740.093 145.106C740.821 146.62 741.171 148.33 741.32 149.995C741.501 152.009 741.577 174.046 741.375 174.608C748.447 171.806 761.331 151.579 768.19 145.226C769.873 143.668 772.08 142.21 774.472 142.363C777.249 142.54 780.575 144.033 782.425 146.136C783.349 147.188 783.965 148.465 783.818 149.901C783.682 151.233 782.972 152.401 782.151 153.425C779.905 156.23 776.748 158.303 774.276 160.915C770.435 164.97 767.13 169.692 763.464 173.935C762.556 174.985 761.703 175.995 760.588 176.834C762.192 177.737 780.508 196.528 781.282 197.941Q781.765 198.223 782.21 198.562Q782.654 198.902 783.053 199.294Q783.452 199.686 783.799 200.124Q784.146 200.563 784.436 201.041C785.502 202.775 785.652 204.891 785.175 206.839C784.581 209.264 782.91 211.506 780.737 212.739C769.865 218.905 757.548 191.351 749.503 188.998C745.881 189.425 743.535 193.213 740.52 194.977C740.428 195.031 740.335 195.083 740.243 195.136C741.767 197.389 742.092 202.663 741.592 205.278C740.986 208.454 739.122 211.612 736.384 213.403C734.753 214.47 732.791 214.956 730.877 214.447C728.709 213.871 727.083 211.991 726.054 210.09C725.275 208.652 724.544 207.109 724.403 205.466C723.715 197.466 725.04 188.907 725.171 180.855C725.299 173.011 723.3 152.782 725.312 146.562C726.215 143.773 728.472 142.013 731.001 140.799Z"/>
	<path fill="#0D2034" d="M590.326 225.072C593.519 224.633 596.227 224.658 599.02 226.458C601.684 228.174 603.759 231.521 605.364 234.22C611.288 244.183 615.617 255.381 620.334 265.942C622.962 271.826 626.955 278.48 628.244 284.799C628.807 287.555 627.773 290.465 626.23 292.741C624.956 294.619 623.063 296.394 620.725 296.712C611.929 297.907 611.657 283.073 606.442 279.201C606.36 279.14 606.275 279.083 606.191 279.024L599.049 279.414C593.897 279.759 588.039 279.055 583.035 280.008C578.783 280.818 578.171 291.144 573.766 295.121C572.511 296.254 570.97 296.776 569.283 296.651C567.109 296.491 565.259 295.551 563.843 293.902C562.169 291.953 561.164 289.275 561.387 286.694C562.215 277.095 580.519 237.965 586.598 229.096C587.668 227.535 588.898 226.304 590.326 225.072Z"/>
	<path fill="#FCF5E4" d="M592.963 247.681C594.237 247.844 594.587 248.063 595.389 249.089C597.764 252.127 602.824 261.093 602.313 264.919C600.594 265.754 597.174 265.323 595.218 265.335C593.391 265.334 591.254 265.516 589.471 265.155C588.348 264.928 587.579 264.319 586.938 263.402C585.69 259.334 591.736 252.127 592.899 247.93C592.922 247.847 592.942 247.764 592.963 247.681Z"/>
	<path fill="#0D2034" d="M699.199 140.387C700.16 140.176 701.102 140.046 702.086 140.162C704.521 140.451 706.979 141.832 708.496 143.744C710.386 146.127 711.374 149.039 711.648 152.043C712.295 159.106 710.762 166.879 710.64 174.053C710.523 180.955 710.403 187.932 710.469 194.833C710.511 199.145 711.007 203.69 710.456 207.965C710.143 210.4 708.74 212.664 706.775 214.145C705.255 215.289 703.46 215.734 701.582 215.471C699.174 215.133 697.096 213.796 695.3 212.221C687.865 205.7 678.972 190.801 672.515 182.395C671.249 180.747 668.639 176.807 666.567 176.536C663.926 184.894 668.685 204.662 663.378 211.957C661.738 214.211 659.779 215.256 657.076 215.701C656.558 215.72 656.082 215.674 655.576 215.551C653.522 215.055 651.749 212.821 650.781 211.059C649.788 209.254 649.369 207.221 649.255 205.179C648.754 196.139 649.812 186.774 649.966 177.707C650.073 171.367 648.796 152.16 650.237 147.488C650.97 145.112 652.741 142.97 654.969 141.852C656.502 141.083 658.204 140.886 659.844 141.429C661.876 142.102 663.563 144.021 664.902 145.608C668.981 150.44 672.02 156.237 675.793 161.335C681.422 168.942 689.201 175.993 693.455 184.435C694.141 181.499 693.95 178.088 693.964 175.074C694.012 165.005 692.632 148.555 699.199 140.387Z"/>
	<path fill="#0D2034" d="M757.838 224.661C763.303 224.28 769.356 224.377 774.728 225.51C781.536 226.946 787.832 230.987 791.586 236.911C794.549 241.588 794.895 246.739 793.66 252.042C792.171 258.438 788.604 265.645 782.881 269.202C784.691 270.401 785.872 272.662 787.503 274.151C789.316 275.805 791.514 277.121 793.469 278.613C795.356 280.055 796.752 281.684 797.037 284.119C797.371 286.978 796.649 290.426 794.812 292.671C793.253 294.576 790.76 296.472 788.206 296.595C783.394 296.826 779.811 290.188 776.709 287.348C776.635 287.28 776.559 287.215 776.484 287.148C776.461 287.016 776.443 286.883 776.416 286.752C775.727 283.369 768.692 275.924 765.755 273.863C763.695 274.902 759.457 274.892 757.095 275.149C757.211 275.409 757.247 275.452 757.298 275.776C757.844 279.233 756.937 289.934 754.686 292.829C753.553 294.286 752.242 295.476 750.346 295.706C748.009 295.991 745.702 295.256 743.882 293.79C742.154 292.399 740.883 290.364 740.653 288.136C739.772 279.613 741.149 270.266 741.344 261.661C741.509 254.395 740.814 240.818 741.895 234.293C742.204 232.424 743.376 230.432 744.595 229.011C747.905 225.149 753.151 225.046 757.838 224.661Z"/>
	<path fill="#FCF5E4" d="M759.786 240.283C763.77 239.945 767.848 239.608 771.725 240.833C774.548 241.726 777.388 243.61 778.701 246.347C779.358 247.716 779.55 249.262 778.972 250.701C778.03 253.049 774.916 255.449 772.654 256.427C772.379 256.685 772.14 256.836 771.811 257.023C769.128 258.547 761.573 259.564 758.504 258.465C757.566 258.129 757.256 257.723 756.905 256.835C755.749 253.914 756.343 244.404 757.829 241.599C758.344 240.626 758.784 240.644 759.786 240.283Z"/>
	<path fill="#0D2034" d="M559.716 141.209C566.718 140.369 587.216 140.245 593.626 142.54C600.083 144.852 606.303 150.333 609.22 156.572C611.873 162.248 611.843 168.479 609.666 174.302C607.444 180.246 603.708 184.572 597.932 187.223C598.081 187.302 598.227 187.385 598.37 187.475C601.565 189.485 611.67 201.289 612.391 205.224C612.783 207.358 611.926 209.499 610.719 211.231C609.319 213.238 607.066 215.173 604.582 215.576C601.751 216.036 599.312 213.866 597.143 212.353C597.026 211.911 597.097 211.985 596.88 211.69C593.826 207.548 586.304 194.703 582.605 192.9C579.03 191.961 574.745 192.488 571.102 192.716C572.773 195.581 572.711 202.237 572.429 205.599C572.14 209.029 570.953 212.193 568.236 214.446C566.98 215.488 565.485 216.038 563.832 215.786C561.033 215.357 558.422 212.937 556.919 210.663C556.126 209.463 555.432 208.101 555.281 206.653C554.419 198.357 555.364 189.667 555.267 181.313C555.182 173.886 553.3 151.937 554.647 146.539C555.337 143.775 557.375 142.508 559.716 141.209Z"/>
	<path fill="#FCF5E4" d="M574.909 155.598C578.936 155.469 583.078 155.253 586.922 156.678C590.174 157.883 593.168 160.253 594.621 163.457C595.562 165.532 595.807 168.123 594.915 170.26C593.915 172.654 591.666 174.82 589.263 175.742C585.865 178.491 575.349 177.215 571.116 176.89C571.444 173.074 571.674 159.328 570.533 156.134L574.909 155.598Z"/>
	<path fill="#0D2034" d="M557.752 225.071C558.774 224.921 559.907 224.716 560.937 224.85C563.079 225.13 565.175 226.475 566.468 228.176C568.382 230.693 568.877 234.117 568.451 237.184C567.317 245.342 561.42 256.705 558.487 264.769C555.83 272.073 554.134 279.631 550.72 286.657C549.165 289.859 547.277 293.364 544.361 295.512C542.859 296.617 541.062 297.314 539.179 296.992C528.433 295.152 526.556 270.744 520.922 263.313C520.854 263.224 520.784 263.138 520.715 263.05C520.729 263.243 520.76 263.472 520.733 263.67C520.486 265.51 518.369 268.736 517.573 270.591C515.055 276.452 509.694 293.015 504.736 296.768C503.56 297.658 501.741 297.765 500.327 297.567C497.775 297.209 495.829 295.622 494.327 293.603C490.193 288.047 485.368 270.764 482.907 263.13C482.153 260.79 481.493 257.349 479.994 255.412C479.939 255.341 479.879 255.274 479.822 255.205C480.457 253.553 477.119 240.968 476.635 238.108C476.26 235.894 476.288 233.613 475.685 231.452C476.702 230.848 477.499 229.71 478.343 228.879C479.976 227.273 481.858 225.508 484.32 225.646C486.13 225.748 487.606 226.733 488.816 228.022Q489.737 228.999 490.431 230.148Q491.125 231.297 491.561 232.566C494.107 239.931 495.09 248.054 497.255 255.597C498.339 259.374 500.797 264.463 500.723 268.33C501.877 267.218 502.593 264.684 503.266 263.198C505.014 259.341 506.804 255.488 508.333 251.538C510.624 245.62 513.898 232.16 519.614 228.857C520.562 228.309 521.634 228.193 522.677 228.533C525.533 229.464 527.746 233.131 529.112 235.617C531.625 240.188 540.708 264.629 539.542 268.639C543.403 265.446 550.892 235.268 554.869 228.325C555.601 227.049 556.677 226.056 557.752 225.071Z"/>
	<path fill="#0D2034" d="M489.4 141.207C498.874 140.23 511.9 140.632 520.787 144.147C530.083 147.824 538.781 155.06 542.788 164.36C546.202 172.281 547.057 182.018 543.752 190.108C541.045 196.735 535.163 203.864 528.453 206.633C526.989 208.249 523.295 209.918 521.269 210.747C515.114 213.265 494.779 216.955 488.948 214.429C486.243 213.257 484.232 210.585 483.249 207.869C482.809 206.653 482.607 205.393 482.531 204.107C481.926 193.862 482.485 183.248 482.505 172.971C482.52 164.982 481.955 156.73 482.434 148.773C482.505 147.594 482.623 146.396 483.172 145.329C484.47 142.807 486.838 141.981 489.4 141.207Z"/>
	<path fill="#FCF5E4" d="M498.495 156.829C502.758 156.397 507.58 156.868 511.716 157.988C518.235 159.753 523.668 163.874 526.968 169.79C529.283 173.938 530.156 178.986 528.818 183.604C527.729 187.365 524.59 191.132 521.145 193.005C521.027 193.254 521.035 193.274 520.819 193.514C517.158 197.581 503.055 199.383 497.661 199.384C499.069 196.736 498.569 162.442 498.495 156.829Z"/>
</svg>
